<?xml version="1.0" encoding="UTF-8"?>
<svg version="1.1" xmlns="http://www.w3.org/2000/svg" width="1536" height="1024">
<path d="M0 0 C506.88 0 1013.76 0 1536 0 C1536 337.92 1536 675.84 1536 1024 C1029.12 1024 522.24 1024 0 1024 C0 686.08 0 348.16 0 0 Z " fill="#FDFDFD" transform="translate(0,0)"/>
<path d="M0 0 C1.86977337 -0.00243515 3.73954543 -0.00616142 5.60931396 -0.01106262 C10.63401877 -0.02037509 15.65852548 -0.011129 20.68321466 0.00226951 C25.9719049 0.01368811 31.26058685 0.00946861 36.54928589 0.00752258 C45.42384021 0.00664302 54.29831766 0.01765018 63.17285156 0.03613281 C73.39817766 0.05730823 83.62339138 0.06080544 93.84873497 0.05457085 C103.73349037 0.04885508 113.61820664 0.05454802 123.50295639 0.0657444 C127.68836066 0.07035982 131.87374077 0.07127762 136.05914688 0.06915855 C140.99561088 0.0672599 145.93196225 0.07549935 150.86840057 0.09121895 C152.66817382 0.09542184 154.46795857 0.09633969 156.26773453 0.09352875 C193.06397048 0.04482208 224.97528482 12.51225545 251.40390015 38.67967224 C252.4130133 39.69097261 253.41949967 40.7049009 254.42333984 41.72143555 C255.93640677 43.25065099 257.46496579 44.76305391 258.99560547 46.2746582 C270.10722073 57.3622603 280.91787728 68.8176182 281.18310547 85.30981445 C281.02953757 96.46691298 277.54999715 105.39659226 269.68310547 113.37231445 C261.86849815 120.01037308 252.78740724 123.11528612 242.54248047 122.7824707 C229.3656409 120.89235027 220.35102678 112.41302471 211.83691406 102.92797852 C199.56591524 89.29543234 184.28497263 78.4949524 165.49516106 76.91238213 C161.04078016 76.67858481 156.59097571 76.706104 152.13208008 76.74121094 C150.43978632 76.73605685 148.74749796 76.72876446 147.05522156 76.7195282 C142.50964533 76.70119669 137.96466444 76.71383525 133.41911387 76.7336185 C128.6322327 76.75015615 123.8453848 76.74117142 119.05848694 76.73609924 C111.02530547 76.73159545 102.99235816 76.74734227 94.95922852 76.77539062 C85.70800818 76.80744558 76.45720957 76.80741683 67.20595926 76.79017586 C58.25822539 76.7742435 49.31064425 76.78108659 40.36291695 76.79811287 C36.57660349 76.80493634 32.79041421 76.80399982 29.00410271 76.79656792 C24.5361767 76.78883573 20.06872348 76.80125414 15.60087776 76.82841682 C13.97365852 76.83522935 12.34639449 76.83547662 10.71917725 76.82820129 C-14.99388481 76.72659218 -32.829176 86.6371412 -51.53564453 103.87231445 C-54.21154985 106.2776226 -56.95149377 108.55460694 -59.75439453 110.80981445 C-63.7491344 114.03174547 -67.56243802 117.3788694 -71.31689453 120.87231445 C-75.92347571 125.1586441 -80.68816449 129.16983233 -85.59033203 133.1184082 C-89.43844564 136.29944194 -93.10120935 139.6679106 -96.77783203 143.04418945 C-101.28945572 147.18100133 -105.91674944 151.17842268 -110.57080078 155.15356445 C-116.80928656 160.48267981 -123.01977264 165.8257259 -129.07470703 171.36450195 C-130.51696936 172.65600515 -131.98957336 173.91479738 -133.49658203 175.13012695 C-140.07243288 180.46525123 -144.68755506 187.2811198 -147.31689453 195.37231445 C-148.47264629 207.13141663 -146.72009492 216.91266951 -139.31689453 226.37231445 C-134.41739183 231.80715474 -128.93474128 236.38340705 -123.23876953 240.9543457 C-120.16465631 243.49829769 -117.23521501 246.15354936 -114.31689453 248.87231445 C-109.68471436 253.18258723 -104.89564356 257.22294919 -99.96533203 261.19262695 C-97.34414334 263.34988844 -94.82535172 265.58542446 -92.31689453 267.87231445 C-88.89950081 270.98690114 -85.41167103 273.96418065 -81.81689453 276.87231445 C-77.3541324 280.48263888 -73.0896992 284.25659374 -68.84814453 288.12231445 C-65.33809202 291.24236113 -61.68423934 294.17162636 -58.03173828 297.12231445 C-55.40410634 299.30003532 -52.88858363 301.55984578 -50.37939453 303.87231445 C-42.6148376 310.88113743 -34.63399304 316.96842956 -25.31689453 321.74731445 C-24.70120605 322.06901611 -24.08551758 322.39071777 -23.45117188 322.72216797 C-12.08898817 328.29137514 -0.47815023 328.82125709 11.91601562 328.80810547 C13.62255506 328.81710073 15.32908845 328.82731299 17.03561401 328.83863831 C21.63930415 328.86496596 26.24282664 328.87216453 30.8465848 328.87408566 C33.73266462 328.8762285 36.61870278 328.88265279 39.50477219 328.89057732 C49.60151592 328.91827615 59.69814141 328.93059 69.79492188 328.92822266 C79.16082904 328.92642291 88.52621643 328.95804251 97.89199221 329.00545365 C105.97060473 329.0448706 114.04904871 329.06076637 122.12775648 329.05885643 C126.93611252 329.0580969 131.74400617 329.06634593 136.55226517 329.09839058 C141.08180797 329.12775752 145.61045661 329.12745536 150.14003372 329.10584068 C151.78698049 329.10274252 153.43398619 329.10955305 155.08083344 329.12792206 C178.07659657 329.3674699 194.90860225 320.61384721 211.20214844 304.8371582 C213.29914693 302.76297572 215.33054334 300.62732641 217.37060547 298.49731445 C221.62521355 294.18002338 226.28308667 291.09914514 231.68310547 288.37231445 C232.41787109 287.99977539 233.15263672 287.62723633 233.90966797 287.2434082 C241.57128518 284.83701294 251.59218858 284.99949274 259.16357422 287.5402832 C261.85361299 288.98362814 264.24953157 290.53390808 266.68310547 292.37231445 C267.27091797 292.75516602 267.85873047 293.13801758 268.46435547 293.5324707 C274.36713015 297.73368023 278.51954083 305.56548324 280.68310547 312.37231445 C281.9875058 325.67719782 279.9643093 336.19987912 271.68212891 346.98730469 C267.21707241 352.31450753 262.28400639 357.21240081 257.37060547 362.12231445 C256.79207825 362.70124451 256.21355103 363.28017456 255.61749268 363.87664795 C229.48758991 389.90190481 200.53068699 403.68467067 163.51855469 403.6628418 C161.48542537 403.66883427 159.45229831 403.67564146 157.41917419 403.68319702 C151.92091332 403.70079274 146.42271478 403.70554973 140.92442846 403.70682859 C137.48140288 403.7082546 134.03839293 403.71253273 130.59537125 403.71782303 C118.56112927 403.73630329 106.52693147 403.74449631 94.49267578 403.74291992 C83.31202692 403.74171964 72.13157145 403.76280494 60.95097148 403.79440725 C51.32167979 403.82064535 41.69245095 403.83128404 32.06312382 403.8300091 C26.32542873 403.82950161 20.5879056 403.83506636 14.85024643 403.8563652 C9.44759405 403.87587447 4.04527541 403.87578604 -1.35738945 403.86133194 C-3.32725836 403.85925827 -5.29714887 403.86385739 -7.26698112 403.87605286 C-43.13590528 404.08353363 -71.70903549 388.45181686 -97.30517578 364.1730957 C-100.03540296 361.59798517 -102.88653086 359.2191425 -105.81689453 356.87231445 C-111.22126236 352.53304102 -116.26644576 347.8683503 -121.33251953 343.14575195 C-125.95043214 338.84125932 -130.7245106 334.7291904 -135.52783203 330.6340332 C-136.72851494 329.60948353 -137.92903074 328.58473799 -139.12939453 327.55981445 C-139.73557617 327.04249756 -140.34175781 326.52518066 -140.96630859 325.9921875 C-144.70760273 322.78729216 -148.37804836 319.52022168 -152.00439453 316.18481445 C-156.4131102 312.13810476 -160.97755128 308.3447773 -165.63330078 304.5871582 C-169.12382882 301.70632938 -172.44963521 298.66297043 -175.79345703 295.61450195 C-178.36771812 293.32715542 -181.00978943 291.15683174 -183.69189453 288.99731445 C-205.13683887 271.5751876 -221.01815221 252.54919832 -228.31689453 225.37231445 C-228.54505859 224.53700195 -228.77322266 223.70168945 -229.00830078 222.84106445 C-234.59636597 198.14416096 -228.59418922 172.35897307 -215.484375 151.20776367 C-206.91581713 137.73674358 -195.71748673 126.64382515 -183.23876953 116.78637695 C-178.87038849 113.17720652 -174.78626592 109.28013224 -170.6640625 105.39501953 C-166.90361935 101.85132079 -163.11030384 98.37071492 -159.19189453 95.0012207 C-156.92938272 93.03566356 -154.71998771 91.01558136 -152.50439453 88.99731445 C-149.12748471 85.94372579 -145.68472321 83.0280224 -142.12939453 80.18481445 C-136.06369235 75.28227959 -130.43524476 69.94973409 -124.76220703 64.6027832 C-121.63913531 61.66198866 -118.45417361 58.80832268 -115.20361328 56.0090332 C-112.88030666 53.99357673 -110.59940988 51.93382983 -108.31689453 49.87231445 C-104.69243409 46.60145991 -101.04112486 43.36687593 -97.35205078 40.16918945 C-95.92451216 38.90879067 -94.51716348 37.62532859 -93.12548828 36.32543945 C-66.43667852 11.52727025 -36.25470587 -0.16803652 0 0 Z " fill="#010101" transform="translate(403.31689453125,308.627685546875)"/>
<path d="M0 0 C0.79183906 -0.00297112 1.58367811 -0.00594224 2.39951229 -0.0090034 C5.03214025 -0.01762059 7.66472237 -0.0191927 10.29736328 -0.02069092 C12.19374182 -0.02532413 14.09011943 -0.03034947 15.98649597 -0.03573608 C21.12536207 -0.04881572 26.26421512 -0.05529665 31.40309525 -0.05974674 C34.62012149 -0.06268534 37.83714423 -0.06679167 41.0541687 -0.07125092 C51.138089 -0.0849157 61.22200122 -0.09458669 71.30593014 -0.09845281 C82.91128524 -0.10292772 94.51652222 -0.12045364 106.12184143 -0.1494534 C115.11496212 -0.17113852 124.10804975 -0.18116076 133.10119629 -0.18249393 C138.4616145 -0.18353729 143.82192153 -0.18934451 149.18231201 -0.20731354 C154.23193937 -0.22391219 159.28137337 -0.22589307 164.33101845 -0.21717453 C166.17230056 -0.21641036 168.01359358 -0.22066379 169.85484886 -0.23063278 C184.2595165 -0.30397539 197.94940157 1.03845405 211.68017578 5.76544189 C212.42122559 6.01922607 213.16227539 6.27301025 213.92578125 6.53448486 C234.14055568 13.76658696 250.30475959 26.56147743 265.74267578 41.14044189 C267.08937209 42.33640706 268.44275075 43.52492591 269.80517578 44.70294189 C272.94168105 47.41822228 276.00135978 50.20748396 279.05517578 53.01544189 C282.65658749 56.30476428 286.31574853 59.46061825 290.11767578 62.51544189 C295.55798511 66.9050477 300.65269361 71.60735387 305.76220703 76.37091064 C309.86420086 80.19458681 314.09321046 83.86034986 318.34326172 87.5178833 C326.03630474 94.14326066 333.64855913 100.82868793 341.10595703 107.71856689 C343.94677035 110.32790654 346.83661154 112.87128245 349.75048828 115.39825439 C352.97283331 118.21622671 356.14102582 121.09373714 359.30908203 123.97247314 C360.76836441 125.27247591 362.24936916 126.54950649 363.77001953 127.77716064 C374.73687754 136.6807243 382.19741006 148.81171097 388.74267578 161.14044189 C389.15130859 161.84298096 389.55994141 162.54552002 389.98095703 163.26934814 C400.05783887 181.28323344 400.78606666 208.48536793 395.38085938 228.09356689 C386.78759251 255.65513896 368.38034472 275.30627944 346.35595703 292.99591064 C343.74419955 295.13919145 341.23902277 297.3642452 338.74267578 299.64044189 C335.3680663 302.71697861 331.92451714 305.65162407 328.36767578 308.51544189 C323.22509035 312.67606264 318.36815841 317.08400494 313.52001953 321.57794189 C310.63227418 324.24230328 307.69298195 326.83424893 304.72314453 329.40606689 C302.43134423 331.41308728 300.18270826 333.46447041 297.93017578 335.51544189 C294.5103825 338.6068099 291.02309054 341.56503221 287.43017578 344.45294189 C283.20871203 347.86464673 279.20173511 351.43341817 275.24267578 355.14044189 C270.43349521 359.64346774 265.48764942 363.88196298 260.34033203 367.99981689 C257.7894227 370.10191962 255.39770717 372.31158612 252.99267578 374.57794189 C234.86366811 390.98856021 208.69429427 403.52348976 183.94749451 403.40113831 C183.10988195 403.40496385 182.27226939 403.4087894 181.40927464 403.41273087 C178.62768333 403.42297541 175.84630176 403.41908502 173.06469727 403.4151001 C171.05979727 403.41945147 169.05489894 403.42463604 167.05000305 403.43058777 C161.61986398 403.44394749 156.18979466 403.44455949 150.75964236 403.44202447 C146.2150279 403.44095208 141.67042739 403.44584531 137.12581593 403.45062989 C126.39384382 403.46171598 115.6619067 403.46216842 104.92993164 403.45611572 C93.89020877 403.45008467 82.85061363 403.46236696 71.81091255 403.48368579 C62.30821597 403.50135601 52.80555983 403.50729438 43.30284745 403.50404805 C37.63840611 403.50224268 31.97405577 403.50479586 26.30962944 403.51876259 C20.97517147 403.53142368 15.64091088 403.52931918 10.30645561 403.5163517 C8.36036103 403.51400378 6.4142522 403.51665569 4.46817398 403.52497482 C-36.81937452 403.68859229 -65.78570007 385.59518962 -94.50732422 357.20294189 C-95.36583984 356.37343018 -96.22435547 355.54391846 -97.10888672 354.68927002 C-107.0023437 344.89474761 -113.25660249 334.78258198 -113.69482422 320.70294189 C-113.43912821 310.0382874 -109.87163806 301.69696208 -102.25732422 294.14044189 C-92.14217475 286.65426947 -81.61103246 284.48732361 -69.25732422 286.14044189 C-57.59832826 289.25620806 -50.37431574 297.60832994 -42.30029297 306.02716064 C-30.47685413 318.26604006 -14.92912091 327.90888395 2.46183932 328.48695827 C6.19175786 328.54879126 9.91986349 328.54387766 13.65014648 328.52862549 C15.33346902 328.53269811 17.01678889 328.53804385 18.70010376 328.54455566 C23.24370342 328.55815613 27.7870972 328.55296 32.33070016 328.54341841 C37.10606677 328.53578017 41.8814167 328.54287927 46.65678406 328.5475769 C54.67690161 328.55302398 62.6969361 328.54587209 70.71704102 328.53155518 C79.95845758 328.51524742 89.19967535 328.52050779 98.44108707 328.53703439 C106.40411165 328.55069923 114.36707677 328.5525441 122.3301093 328.54471838 C127.07336534 328.54006708 131.81652833 328.53934604 136.55977821 328.54932785 C141.02426077 328.55806772 145.48849017 328.55184905 149.95294571 328.53464508 C151.58059077 328.53071667 153.20825755 328.53175077 154.83589363 328.53843307 C181.77134446 328.63872265 199.88914972 318.99402262 220.046875 301.60235596 C221.74466759 300.1387248 223.4478734 298.68165382 225.15283203 297.22637939 C231.83741631 291.51700474 238.48824472 285.76920881 245.12573242 280.00518799 C249.41834573 276.27990252 253.73236891 272.5806141 258.05517578 268.89044189 C262.06615079 265.46603241 266.02922683 262.00317461 269.93017578 258.45294189 C273.26494692 255.42331321 276.67555217 252.53436097 280.18017578 249.70294189 C285.00721413 245.7963134 289.61004532 241.69556232 294.17236328 237.48419189 C296.42264593 235.43226243 298.71995143 233.4688615 301.05517578 231.51544189 C308.68914594 224.81815519 314.04204611 216.7678266 315.12548828 206.51934814 C315.45354315 195.66073191 313.75765976 188.31735703 306.61767578 180.07794189 C301.91129776 175.14745063 296.88948052 170.60381847 291.74267578 166.14044189 C290.81068359 165.31866455 290.81068359 165.31866455 289.85986328 164.48028564 C286.6782328 161.6774207 283.47066167 158.90469321 280.26220703 156.13262939 C278.96393893 155.01033884 277.66576453 153.88793989 276.36767578 152.76544189 C275.71226807 152.19889893 275.05686035 151.63235596 274.3815918 151.04864502 C270.71287868 147.87046513 267.08190924 144.65859377 263.49267578 141.39044189 C260.19974612 138.40180937 256.8295081 135.55660584 253.36767578 132.76544189 C248.81326655 129.08342655 244.50520014 125.21143832 240.22143555 121.22467041 C237.01004171 118.25357439 233.71657815 115.44097602 230.30517578 112.70294189 C226.12623234 109.34657784 222.20211739 105.81255995 218.30517578 102.14044189 C199.55214873 84.64092991 182.07339504 76.66803528 156.47802734 76.72052002 C154.76824393 76.71316546 153.05846545 76.70457524 151.34869385 76.69485474 C146.73686241 76.67277408 142.12521035 76.66970132 137.51333332 76.67160225 C133.64705273 76.67172259 129.78080926 76.66313239 125.9145391 76.65482473 C116.78333251 76.63563841 107.65221731 76.63268914 98.52099609 76.63946533 C89.13920329 76.6461001 79.75780424 76.62325341 70.37609124 76.5861516 C62.2873206 76.55533804 54.19867585 76.54410722 46.10984778 76.54798841 C41.29379627 76.55004418 36.47805125 76.54475996 31.66205597 76.52009583 C27.12767123 76.49763793 22.59392124 76.49986254 18.05953217 76.52002335 C16.40852859 76.52340021 14.75748065 76.51849034 13.10653687 76.50403976 C-9.4573396 76.32038253 -26.24520369 84.42232923 -42.25732422 100.14044189 C-43.04623047 100.90227783 -43.83513672 101.66411377 -44.64794922 102.44903564 C-47.37550814 105.12103318 -49.90970196 107.65377073 -52.13232422 110.76544189 C-58.09240582 117.42670957 -67.29852204 121.39455567 -76.06591797 122.49200439 C-85.78706502 122.97237317 -94.16121774 119.9905168 -101.69482422 113.82794189 C-109.65728649 106.17935261 -113.35916421 97.16497175 -113.63232422 86.20294189 C-113.18512089 69.54908999 -104.14769942 59.52821611 -93.05273438 48.00762939 C-91.80396122 46.70893248 -90.56192189 45.40374072 -89.32519531 44.09356689 C-65.8735253 19.30163988 -35.22723879 -0.04212976 0 0 Z " fill="#010101" transform="translate(965.25732421875,308.85955810546875)"/>
<path d="M0 0 C0.81065414 -0.00832352 1.62130829 -0.01664703 2.45652771 -0.02522278 C5.12585316 -0.04923593 7.79493358 -0.05808594 10.46435547 -0.06469727 C12.3327542 -0.07367296 14.20115223 -0.08279497 16.06954956 -0.09205627 C19.98502341 -0.10852723 23.90041197 -0.11624245 27.81591797 -0.11914062 C32.80561607 -0.12451036 37.79449923 -0.16214018 42.78396797 -0.20788479 C46.64473305 -0.23780114 50.50530576 -0.2448674 54.36617661 -0.24586678 C56.20399568 -0.25004324 58.04181671 -0.26237274 59.87952042 -0.28338432 C82.0124426 -0.51622238 82.0124426 -0.51622238 90.92703247 7.23780823 C92.84535043 9.19825213 94.27147066 10.95945532 95.70654297 13.30639648 C96.20293274 14.07817986 96.20293274 14.07817986 96.70935059 14.86555481 C101.08969033 22.89999014 100.28476754 31.89355373 100.23779297 40.77124023 C100.24049219 42.57288319 100.24437818 44.37452471 100.24938965 46.17616272 C100.255266 49.94098869 100.2467832 53.70543342 100.22802734 57.47021484 C100.2052553 62.27277761 100.21836152 67.07444517 100.2423172 71.87697506 C100.25683988 75.59443281 100.25213942 79.31168182 100.24180603 83.02914619 C100.23915572 84.79880443 100.24234815 86.56848221 100.25172424 88.3381176 C100.30111012 100.27828111 99.95787304 110.63836186 91.33935547 119.84155273 C84.50365164 125.97406215 76.32133191 127.60479306 67.35961914 127.61279297 C66.55535995 127.62111649 65.75110077 127.62944 64.92247009 127.63801575 C62.28143375 127.66197822 59.64064502 127.67087083 56.99951172 127.67749023 C55.15017122 127.68646689 53.30083141 127.69558891 51.45149231 127.70484924 C47.58068076 127.72130435 43.70995534 127.72903303 39.83911133 127.73193359 C34.89968811 127.73731434 29.96108383 127.77499667 25.02189159 127.82067776 C21.20324303 127.85054297 17.38478948 127.8576592 13.56603432 127.85865974 C11.74609946 127.86284311 9.926163 127.87520103 8.10634422 127.89617729 C-10.63611383 128.09502954 -10.63611383 128.09502954 -18.29345703 122.30639648 C-20.79345703 119.68139648 -20.79345703 119.68139648 -22.29345703 117.30639648 C-22.95345703 116.31639648 -23.61345703 115.32639648 -24.29345703 114.30639648 C-24.46457705 111.83582825 -24.52598828 109.48135728 -24.48876953 107.01342773 C-24.48593964 106.30739914 -24.48310974 105.60137054 -24.48019409 104.87394714 C-24.46901167 102.62209016 -24.44391123 100.37063297 -24.41845703 98.11889648 C-24.4084247 96.59090744 -24.39929929 95.06291216 -24.39111328 93.53491211 C-24.36907875 89.79191986 -24.3345627 86.04922592 -24.29345703 82.30639648 C-25.40179398 82.31305832 -26.51013092 82.31972015 -27.65205383 82.32658386 C-38.08483482 82.38733556 -48.51758004 82.43234053 -58.95049763 82.461833 C-64.31448538 82.47750497 -69.67833061 82.49877123 -75.04223633 82.53271484 C-80.21638075 82.5652536 -85.39038788 82.58323795 -90.56462669 82.59102821 C-92.5410497 82.59658159 -94.51746499 82.60742565 -96.49382973 82.62358665 C-99.25703945 82.64528804 -102.01967809 82.64836647 -104.78295898 82.64697266 C-105.60438889 82.65775848 -106.42581879 82.66854431 -107.2721405 82.67965698 C-112.8498454 82.64910862 -112.8498454 82.64910862 -115.00291729 80.98575306 C-117.11791959 78.23353792 -116.68307785 75.52129543 -116.69189453 72.11889648 C-116.69476471 71.41998291 -116.69763489 70.72106934 -116.70059204 70.00097656 C-116.70263129 68.52497547 -116.69711106 67.04894727 -116.68457031 65.57299805 C-116.66851283 63.3142451 -116.68442174 61.05728131 -116.70361328 58.79858398 C-116.70163082 57.3636842 -116.69778709 55.92878554 -116.69189453 54.49389648 C-116.68851074 53.18807617 -116.68512695 51.88225586 -116.68164062 50.53686523 C-116.29345703 47.30639648 -116.29345703 47.30639648 -115.29536438 45.6257782 C-112.07426076 43.50287016 -108.60477103 43.91627921 -104.87475586 43.96582031 C-103.58662743 43.96516319 -103.58662743 43.96516319 -102.2724762 43.9644928 C-99.43158296 43.96658425 -96.59127853 43.98993206 -93.75048828 44.01342773 C-91.78179751 44.01902242 -89.81310257 44.02329312 -87.84440613 44.02629089 C-82.66082239 44.03774968 -77.47749052 44.06722582 -72.29400635 44.10040283 C-67.00544644 44.1310814 -61.71684588 44.1447915 -56.42822266 44.15991211 C-46.04985674 44.19209447 -35.67167782 44.24330337 -25.29345703 44.30639648 C-25.32487793 43.09693359 -25.32487793 43.09693359 -25.35693359 41.86303711 C-25.44054876 38.17761921 -25.49226252 34.49240154 -25.54345703 30.80639648 C-25.57697266 29.53795898 -25.61048828 28.26952148 -25.64501953 26.96264648 C-25.73269972 18.54534874 -25.16112187 12.88048413 -19.58251953 6.28295898 C-19.03337891 5.83694336 -18.48423828 5.39092773 -17.91845703 4.93139648 C-17.37447266 4.46991211 -16.83048828 4.00842773 -16.27001953 3.53295898 C-11.13183313 0.34444015 -5.9007563 0.00519901 0 0 Z " fill="#020202" transform="translate(984.29345703125,448.693603515625)"/>
<path d="M0 0 C1.25487968 -0.01007584 1.25487968 -0.01007584 2.53511047 -0.02035522 C5.28860485 -0.03928468 8.04185485 -0.04325675 10.79541016 -0.04541016 C12.7182322 -0.05184122 14.64105328 -0.05856981 16.56387329 -0.06558228 C20.59029407 -0.07754213 24.61662913 -0.08126439 28.64306641 -0.08007812 C33.78997868 -0.07987493 38.93633886 -0.10718389 44.08312035 -0.14162254 C48.05352276 -0.16391235 52.02379269 -0.16791504 55.99425125 -0.16685867 C57.89117969 -0.16921123 59.78811198 -0.1780152 61.68497849 -0.19352341 C64.34375928 -0.21322718 67.00135437 -0.20732864 69.66015625 -0.1953125 C70.43548203 -0.20655151 71.2108078 -0.21779053 72.0096283 -0.22937012 C78.43747462 -0.15594125 83.59325213 1.81716716 88.48291016 6.03662109 C89.15193359 6.87386719 89.15193359 6.87386719 89.83447266 7.72802734 C90.52669922 8.56140625 90.52669922 8.56140625 91.23291016 9.41162109 C94.13407721 13.85576553 94.70285253 17.64043142 94.65478516 22.90380859 C94.64833984 24.15097656 94.64189453 25.39814453 94.63525391 26.68310547 C94.61011719 28.6234668 94.61011719 28.6234668 94.58447266 30.60302734 C94.57544922 31.9159375 94.56642578 33.22884766 94.55712891 34.58154297 C94.53359063 37.81805648 94.50070785 41.05419883 94.45947266 44.29052734 C95.55528152 44.28386551 96.65109039 44.27720367 97.78010559 44.27033997 C108.09515701 44.20958724 118.41017224 44.16458281 128.72536182 44.13509083 C134.02881628 44.11941911 139.33212657 44.09815333 144.63549805 44.06420898 C149.75128793 44.03166929 154.86693896 44.01368568 159.98282433 44.00589561 C161.93691889 44.00034241 163.89100565 43.98949866 165.84504128 43.97333717 C168.57711986 43.95163451 171.3086209 43.94855741 174.04077148 43.94995117 C175.25889023 43.93377243 175.25889023 43.93377243 176.50161743 43.91726685 C181.93881605 43.94738219 181.93881605 43.94738219 184.46138 45.60990906 C186.14882415 48.45127803 185.84947032 51.22105377 185.85791016 54.47802734 C185.86221542 55.52639771 185.86221542 55.52639771 185.86660767 56.59594727 C185.86864691 58.07194836 185.86312668 59.54797656 185.85058594 61.02392578 C185.83452845 63.28267872 185.85043736 65.53964252 185.86962891 67.79833984 C185.86764645 69.23323962 185.86380271 70.66813829 185.85791016 72.10302734 C185.85452637 73.40884766 185.85114258 74.71466797 185.84765625 76.06005859 C185.45947266 79.29052734 185.45947266 79.29052734 184.46138 80.97114563 C181.24027639 83.09405367 177.77078666 82.68064462 174.04077148 82.63110352 C173.1820192 82.6315416 172.32326691 82.63197968 171.43849182 82.63243103 C168.59759859 82.63033958 165.75729415 82.60699177 162.91650391 82.58349609 C160.94781314 82.57790141 158.97911819 82.57363071 157.01042175 82.57063293 C151.82683802 82.55917415 146.64350614 82.529698 141.46002197 82.496521 C136.17146207 82.46584243 130.8828615 82.45213233 125.59423828 82.43701172 C115.21587237 82.40482936 104.83769345 82.35362046 94.45947266 82.29052734 C94.49089355 83.49213501 94.49089355 83.49213501 94.52294922 84.71801758 C94.60668666 88.38789044 94.65831634 92.05756151 94.70947266 95.72802734 C94.74298828 96.98808594 94.77650391 98.24814453 94.81103516 99.54638672 C94.90590411 108.63008909 94.13740961 115.44541144 87.70947266 122.16552734 C81.34162078 126.3291228 75.54267053 127.74040913 67.99902344 127.69458008 C66.79241562 127.70487495 66.79241562 127.70487495 65.56143188 127.71537781 C62.92569885 127.73354617 60.29056684 127.72982226 57.65478516 127.72412109 C55.80687265 127.72868808 53.95896184 127.73399519 52.11105347 127.74000549 C48.24616579 127.74891736 44.38148496 127.74653592 40.51660156 127.73657227 C35.58513365 127.7250924 30.65438287 127.74528884 25.72300911 127.7744894 C21.90863576 127.79291428 18.09443221 127.79254633 14.28002548 127.78685188 C12.46290965 127.7866994 10.64578177 127.79268303 8.82870865 127.80514336 C-13.8015358 127.93846831 -13.8015358 127.93846831 -22.17324829 119.97528076 C-30.52030231 109.6900886 -30.40423403 99.1352692 -30.26708984 86.58740234 C-30.26605028 84.695577 -30.2670948 82.80374949 -30.27011108 80.91192627 C-30.26993267 76.96813243 -30.24928242 73.02516512 -30.21289062 69.08154297 C-30.16739276 64.04229747 -30.16646112 59.00424992 -30.17992592 53.96485519 C-30.1866251 50.06644145 -30.17331092 46.16829798 -30.15366745 42.26993561 C-30.14600624 40.41211615 -30.14364916 38.55426654 -30.14683914 36.69643402 C-30.14758571 34.09798854 -30.1222047 31.50104967 -30.08984375 28.90283203 C-30.09479858 28.14628326 -30.09975342 27.3897345 -30.1048584 26.61026001 C-29.95513886 19.03138691 -26.73095257 12.77754829 -21.54052734 7.29052734 C-14.86272969 1.67399337 -8.73893448 -0.01016293 0 0 Z " fill="#020101" transform="translate(482.54052734375,448.70947265625)"/>
<path d="M0 0 C1.75352783 0.70781616 1.75352783 0.70781616 3.54248047 1.42993164 C4.16362732 1.68292023 4.78477417 1.93590881 5.42474365 2.19656372 C8.76134848 3.5552799 12.10384183 4.89939971 15.4453125 6.24609375 C16.14475983 6.52847397 16.84420715 6.81085419 17.56484985 7.10179138 C24.96762801 10.08784545 32.39105074 13.02097863 39.81872559 15.94445801 C41.94360564 16.78082785 44.06800842 17.61840146 46.19238281 18.45605469 C52.47973053 20.93254597 58.77071205 23.39182565 65.109375 25.734375 C65.109375 26.394375 65.109375 27.054375 65.109375 27.734375 C64.56337646 28.02981201 64.01737793 28.32524902 63.45483398 28.62963867 C43.33415001 39.52947506 23.43742169 50.80833332 3.578125 62.17578125 C2.81371094 62.60648926 2.04929687 63.03719727 1.26171875 63.48095703 C-0.12560324 64.28886437 -1.49076353 65.1367406 -2.82421875 66.03076172 C-4.609375 67.19921875 -4.609375 67.19921875 -7.890625 68.734375 C-12.16867908 67.66220031 -15.81248474 65.82788337 -19.64453125 63.6796875 C-20.73556152 63.0710083 -21.8265918 62.4623291 -22.95068359 61.83520508 C-24.11826761 61.17677864 -25.28574563 60.5181642 -26.453125 59.859375 C-27.66728866 59.17893822 -28.8816465 58.49884783 -30.09619141 57.8190918 C-39.85366323 52.35011965 -49.5719009 46.81220502 -59.27001953 41.23876953 C-64.07658654 38.47949378 -68.89041784 35.73292208 -73.703125 32.984375 C-75.48049746 31.96880024 -77.25784402 30.95318016 -79.03515625 29.9375 C-79.78128174 29.51114258 -80.52740723 29.08478516 -81.29614258 28.64550781 C-81.82232178 28.34483398 -82.34850098 28.04416016 -82.890625 27.734375 C-82.890625 27.074375 -82.890625 26.414375 -82.890625 25.734375 C-81.84648438 25.31776611 -80.80234375 24.90115723 -79.7265625 24.47192383 C-75.6903601 22.86121293 -71.65481072 21.24887002 -67.61929321 19.63644409 C-64.89212044 18.54747213 -62.16422517 17.46032463 -59.4362793 16.37329102 C-50.69515931 12.88580798 -41.96865042 9.37103707 -33.28515625 5.7421875 C-31.81583078 5.13157268 -30.34643179 4.52113472 -28.87695312 3.91088867 C-26.80231121 3.04916371 -24.73000029 2.18332756 -22.66333008 1.30264282 C-20.77099604 0.49632598 -18.87276128 -0.29424123 -16.97265625 -1.08203125 C-15.91280518 -1.53006104 -14.8529541 -1.97809082 -13.76098633 -2.43969727 C-8.64154068 -3.91278433 -4.78108519 -1.94292916 0 0 Z " fill="#030303" transform="translate(776.890625,485.265625)"/>
<path d="M0 0 C2.45203646 2.45203646 3.75421377 4.05304271 5.390625 6.97265625 C5.8448584 7.77614502 6.2990918 8.57963379 6.76708984 9.4074707 C7.2564502 10.28363037 7.74581055 11.15979004 8.25 12.0625 C9.33011438 13.9743058 10.41087299 15.88574773 11.4921875 17.796875 C12.34828613 19.3137793 12.34828613 19.3137793 13.22167969 20.86132812 C16.2437262 26.19513234 19.30932155 31.50369066 22.375 36.8125 C23.00623779 37.90691406 23.63747559 39.00132812 24.2878418 40.12890625 C27.94537679 46.46410489 31.62612977 52.78512553 35.32470703 59.09643555 C41.24354329 69.19870327 47.0319127 79.36340737 52.72167969 89.59643555 C57.57172388 98.29649362 62.5743823 106.90227072 67.64648438 115.47460938 C68.20271484 116.41884766 68.75894531 117.36308594 69.33203125 118.3359375 C69.82421143 119.16657715 70.3163916 119.9972168 70.82348633 120.85302734 C72 123 72 123 73 126 C67.00070222 124.09897169 61.22317602 121.91844548 55.46875 119.375 C54.67513062 119.02800049 53.88151123 118.68100098 53.06384277 118.32348633 C50.54093703 117.219322 48.02044297 116.10977267 45.5 115 C43.87385383 114.28740451 42.24755252 113.57516296 40.62109375 112.86328125 C27.07320659 106.92608759 13.53906398 100.95718815 0 95 C0 63.65 0 32.3 0 0 Z " fill="#040404" transform="translate(770,381)"/>
<path d="M0 0 C0.33 0 0.66 0 1 0 C1 31.35 1 62.7 1 95 C-8.9 99.29 -18.8 103.58 -29 108 C-32.568125 109.55074219 -36.13625 111.10148437 -39.8125 112.69921875 C-44.49609375 114.73242188 -44.49609375 114.73242188 -46.74169922 115.70678711 C-48.29057984 116.37941992 -49.83906231 117.05297007 -51.38720703 117.72729492 C-53.71545326 118.74113213 -56.04507677 119.75174259 -58.375 120.76171875 C-59.05925049 121.06059494 -59.74350098 121.35947113 -60.44848633 121.66740417 C-64.24719477 123.30983905 -68.05385838 124.75270466 -72 126 C-68.47281277 118.55849523 -64.57289377 111.45159383 -60.36425781 104.38232422 C-56.29031476 97.52801091 -52.32458054 90.61405616 -48.375 83.6875 C-47.68718633 82.48208959 -46.99936071 81.276686 -46.31152344 80.07128906 C-43.86169309 75.77695561 -41.41391749 71.48145191 -38.96630859 67.18585205 C-29.921222 51.31224219 -20.82683062 35.4699466 -11.58544922 19.70947266 C-10.03122645 17.05336482 -8.48524471 14.39262299 -6.94140625 11.73046875 C-6.02350522 10.15360641 -5.10554069 8.57678103 -4.1875 7 C-3.77258301 6.28110596 -3.35766602 5.56221191 -2.93017578 4.8215332 C-1.98147203 3.19765707 -0.99520655 1.59579962 0 0 Z " fill="#030303" transform="translate(765,381)"/>
<path d="M0 0 C0 3.97554527 -1.85776166 6.16218351 -4.0234375 9.328125 C-4.44364166 9.9541864 -4.86384583 10.5802478 -5.29678345 11.22528076 C-6.64975253 13.23794503 -8.01212164 15.24403602 -9.375 17.25 C-10.25454663 18.55425588 -11.1334593 19.85893952 -12.01171875 21.1640625 C-13.78894303 23.80344526 -15.56917186 26.44076376 -17.3515625 29.07666016 C-25.50084059 41.13778456 -33.50026319 53.29794296 -41.49737549 65.4602356 C-46.15383252 72.54010973 -50.81666391 79.61579103 -55.47912598 86.69171143 C-56.43720959 88.14583151 -57.39515549 89.60004234 -58.35290527 91.05438232 C-60.77176125 94.72719972 -63.19595666 98.39640703 -65.625 102.0625 C-66.17961914 102.90506348 -66.73423828 103.74762695 -67.30566406 104.61572266 C-68.51046466 106.42847563 -69.75016819 108.21799599 -71 110 C-71.33 110 -71.66 110 -72 110 C-72.65469609 101.69111761 -73.14875771 93.39324481 -73.45074081 85.06481266 C-73.59589224 81.19408535 -73.79134955 77.34115883 -74.11230469 73.48071289 C-76.07251029 49.27225964 -76.07251029 49.27225964 -70.782444 42.42375565 C-64.33550558 35.92969935 -55.74104103 32.18725552 -47.46963501 28.58468628 C-42.41106471 26.27428564 -37.83569327 23.34503155 -33.1875 20.3125 C-31.53355503 19.28015201 -29.87758418 18.25103576 -28.21875 17.2265625 C-27.38730469 16.71125977 -26.55585937 16.19595703 -25.69921875 15.66503906 C-17.16071845 10.39798298 -8.57695657 5.20411521 0 0 Z " fill="#090808" transform="translate(841,527)"/>
<path d="M0 0 C4.06965662 1.23262393 7.44750019 2.69701073 11.02734375 4.984375 C11.97254883 5.58266113 12.91775391 6.18094727 13.89160156 6.79736328 C14.89674805 7.4417334 15.90189453 8.08610352 16.9375 8.75 C19.09684687 10.11846548 21.25702398 11.48562166 23.41796875 12.8515625 C25.06224854 13.89231934 25.06224854 13.89231934 26.73974609 14.95410156 C32.53944105 18.59356867 38.40577823 22.12369279 44.28100586 25.63964844 C46.07099081 26.71963936 47.83791861 27.83841304 49.58496094 28.98657227 C52.42858109 30.66310468 55.08024991 31.89029159 58.11035156 33.15209961 C63.98793283 35.86464629 69.18843634 38.62500223 73 44 C76.08604223 53.91768903 74.9834858 64.79048872 74.37329102 75.02416992 C74.16678548 78.85699442 74.07696866 82.69248693 73.9765625 86.52929688 C73.76350981 94.02678997 73.42344483 101.51112373 73 109 C70.56845463 106.00738686 68.24622967 102.99898942 66.09008789 99.80249023 C65.28257835 98.60854897 65.28257835 98.60854897 64.45875549 97.39048767 C63.88584274 96.53846268 63.31292999 95.68643768 62.72265625 94.80859375 C62.11546249 93.90867203 61.50826874 93.00875031 60.88267517 92.08155823 C59.59481112 90.17169396 58.30801665 88.26110809 57.0222168 86.34985352 C55.10293333 83.49758835 53.17969328 80.64802539 51.25585938 77.79882812 C44.02129103 67.06923275 36.89591838 56.27580174 29.86376953 45.41259766 C26.29642081 39.90524795 22.65788162 34.4476412 19 29 C16.22776116 24.85510559 13.45775208 20.70872242 10.6875 16.5625 C9.6346582 14.98952148 9.6346582 14.98952148 8.56054688 13.38476562 C7.88443359 12.37220703 7.20832031 11.35964844 6.51171875 10.31640625 C5.90803467 9.41349854 5.30435059 8.51059082 4.68237305 7.58032227 C3.05740629 5.08804631 1.51308934 2.56143379 0 0 Z " fill="#040404" transform="translate(693,527)"/>
<path d="M0 0 C0.66 0 1.32 0 2 0 C2.495 20.295 2.495 20.295 3 41 C3.33 27.47 3.66 13.94 4 0 C4.99 0.495 4.99 0.495 6 1 C5.67 32.35 5.34 63.7 5 96 C7.97 96.99 10.94 97.98 14 99 C16.65449932 100.10023414 19.27641186 101.21983908 21.89453125 102.3984375 C22.60800217 102.71527496 23.32147308 103.03211243 24.05656433 103.35855103 C26.31030383 104.36013436 28.56151862 105.36723542 30.8125 106.375 C33.77645429 107.69731529 36.7414665 109.01723833 39.70703125 110.3359375 C40.77306076 110.8104837 40.77306076 110.8104837 41.86062622 111.2946167 C47.86776428 113.9604142 53.91597773 116.51405542 60 119 C60 119.66 60 120.32 60 121 C59.01 121 58.02 121 57 121 C57.33 121.99 57.66 122.98 58 124 C50.32776223 121.54389819 42.86285321 118.65409124 35.375 115.6875 C34.12305271 115.1939519 32.87101767 114.70062631 31.61889648 114.20751953 C26.40787163 112.15313521 21.20083633 110.08967888 16.01171875 107.98046875 C15.32480957 107.70178955 14.63790039 107.42311035 13.93017578 107.13598633 C12.2132754 106.43643359 10.49907979 105.73025221 8.78515625 105.0234375 C3.15607139 102.95496593 0.36083791 102.88246258 -5.2578125 105.25390625 C-5.86676361 105.50617981 -6.47571472 105.75845337 -7.1031189 106.01837158 C-9.11549743 106.85477263 -11.11992961 107.70874624 -13.125 108.5625 C-14.52866798 109.14888726 -15.93297729 109.73374143 -17.33789062 110.31713867 C-19.55409452 111.23750665 -21.76988739 112.15874225 -23.98382568 113.08454895 C-32.00104915 116.43449735 -40.06790618 119.65774144 -48.14007568 122.87252808 C-50.48603202 123.80693647 -52.83126905 124.74312728 -55.17626953 125.67993164 C-58.78374715 127.12104059 -62.39171303 128.56091876 -66 130 C-67.32 128.68 -68.64 127.36 -70 126 C-61.35750313 121.95597041 -52.66047422 118.09822622 -43.875 114.375 C-36.3175256 111.16131958 -28.77588177 107.92150033 -21.28515625 104.5546875 C-20.66394897 104.27591766 -20.0427417 103.99714783 -19.40270996 103.70993042 C-16.41255122 102.36684044 -13.42578018 101.01684109 -10.44287109 99.65771484 C-8.84499756 98.93769287 -8.84499756 98.93769287 -7.21484375 98.203125 C-5.80900024 97.56358887 -5.80900024 97.56358887 -4.37475586 96.91113281 C-2 96 -2 96 1 96 C0.505 48.48 0.505 48.48 0 0 Z " fill="#DBDADB" transform="translate(765,380)"/>
<path d="M0 0 C63.36 0 126.72 0 192 0 C191.34 0.99 190.68 1.98 190 3 C187.49434037 3.3012801 185.23387863 3.40442668 182.72512817 3.38095093 C181.96670085 3.3856309 181.20827352 3.39031087 180.42686355 3.39513266 C177.87180297 3.40715004 175.3172721 3.39759936 172.76220703 3.38818359 C170.93590989 3.39224638 169.1096152 3.3975866 167.2833252 3.40411377 C162.3121983 3.41783 157.34125749 3.4124705 152.3701272 3.40297651 C147.17495871 3.39539986 141.97980654 3.40242017 136.78463745 3.40713501 C128.05675385 3.41259937 119.32894629 3.40538415 110.60107422 3.39111328 C100.50475624 3.37479569 90.40862007 3.38006608 80.31230652 3.3965925 C71.65323615 3.4102002 62.99422058 3.41213022 54.33514297 3.40427649 C49.15947545 3.39959472 43.98389341 3.39898874 38.80823135 3.40888596 C33.94090506 3.41754256 29.07381336 3.41155758 24.20651245 3.39420319 C22.41825628 3.39023092 20.62998041 3.39138501 18.84173203 3.39799118 C16.40383309 3.4061679 13.96668968 3.39593236 11.52883911 3.38095093 C10.81813833 3.38764309 10.10743756 3.39433526 9.37520039 3.40123022 C4.82705572 3.34687804 3.8747043 2.90602823 0 0 Z " fill="#1B1B1B" transform="translate(384,309)"/>
<path d="M0 0 C64.35 0 128.7 0 195 0 C192 3 192 3 189.43160057 3.3719368 C187.87802314 3.36973696 187.87802314 3.36973696 186.2930603 3.36749268 C185.10398575 3.37306183 183.91491119 3.37863098 182.68980408 3.3843689 C181.38370682 3.37515411 180.07760956 3.36593933 178.73193359 3.35644531 C177.3439674 3.35723607 175.95600142 3.35933299 174.56803894 3.36264038 C170.7975031 3.3677786 167.02723973 3.35423187 163.25674772 3.33711338 C159.31607947 3.32209406 155.37541499 3.32325184 151.4347229 3.32244873 C144.81873919 3.31875527 138.20285918 3.30378224 131.58691406 3.28125 C123.08427824 3.25235192 114.58172585 3.24202482 106.07904625 3.2375679 C98.78027969 3.23359353 91.4815314 3.22109232 84.18277788 3.20722103 C81.83073881 3.20311593 79.47870038 3.20019346 77.12665939 3.19742584 C73.43802456 3.19254485 69.74944075 3.18236189 66.06083107 3.16798782 C64.05360861 3.16128094 62.04637173 3.159458 60.03913879 3.15774536 C58.85570389 3.15203522 57.67226898 3.14632507 56.45297241 3.14044189 C55.41800817 3.13746723 54.38304394 3.13449257 53.31671715 3.13142776 C51 3 51 3 50 2 C48.43551617 1.87736612 46.86567228 1.82220478 45.29663086 1.79467773 C43.79518776 1.7647599 43.79518776 1.7647599 42.26341248 1.73423767 C40.63062096 1.70916893 40.63062096 1.70916893 38.96484375 1.68359375 C37.85645645 1.66281265 36.74806915 1.64203156 35.60609436 1.62062073 C32.04996192 1.55500377 28.49375297 1.49618404 24.9375 1.4375 C22.53319507 1.39432632 20.12889801 1.35071242 17.72460938 1.30664062 C11.81648815 1.19931008 5.90829009 1.09756669 0 1 C0 0.67 0 0.34 0 0 Z " fill="#1E1E1E" transform="translate(957,309)"/>
<path d="M0 0 C27.39 0 54.78 0 83 0 C83 0.99 83 1.98 83 3 C55.28 3 27.56 3 -1 3 C-0.67 2.01 -0.34 1.02 0 0 Z " fill="#2B2C2B" transform="translate(476,573)"/>
<path d="M0 0 C1.12018524 -0.00788544 1.12018524 -0.00788544 2.26300049 -0.01593018 C4.72689846 -0.0291143 7.1901484 -0.02039894 9.65405273 -0.01025391 C11.3675092 -0.01227489 13.08096482 -0.01518654 14.79441833 -0.01895142 C18.38304851 -0.02337242 21.9714545 -0.01695017 25.56005859 -0.00292969 C30.16266724 0.01417508 34.76475157 0.0043116 39.36734104 -0.01364708 C42.90435244 -0.02447999 46.4412392 -0.02104109 49.97825432 -0.0132637 C51.67554728 -0.01126099 53.37285151 -0.01372345 55.0701313 -0.02070236 C57.44028907 -0.0283103 59.80959341 -0.01672329 62.1796875 0 C63.23409279 -0.00910904 63.23409279 -0.00910904 64.30979919 -0.0184021 C68.60103103 0.03777198 69.31768516 0.18072227 72.52514648 3.38818359 C44.80514648 3.38818359 17.08514648 3.38818359 -11.47485352 3.38818359 C-7.16562275 0.15626052 -5.06408651 -0.04387514 0 0 Z " fill="#313231" transform="translate(987.474853515625,572.61181640625)"/>
<path d="M0 0 C-0.99 0.495 -0.99 0.495 -2 1 C-1.01 2.485 -1.01 2.485 0 4 C-6.93 6.64 -13.86 9.28 -21 12 C-21.99 10.68 -22.98 9.36 -24 8 C-20.78446729 6.50586525 -17.56659826 5.01736898 -14.34375 3.5390625 C-12.46217038 2.67300833 -10.58399984 1.79912321 -8.71875 0.8984375 C-5.48075367 -0.6211485 -3.39390778 -1.49331942 0 0 Z " fill="#E9E9E9" transform="translate(719,498)"/>
<path d="M0 0 C3.40312738 1.05875074 6.01353231 2.00902154 9 4 C8.34 5.32 7.68 6.64 7 8 C2.60841671 6.5361389 2.12052567 4.02168662 0 0 Z " fill="#191919" transform="translate(693,527)"/>
</svg>
